<svg xmlns="http://www.w3.org/2000/svg" viewBox="0 0 40 40"><g data-name="Layer 2"><path d="M34 0H6a6 6 0 0 0-6 6v28a6 6 0 0 0 6 6h28a6 6 0 0 0 6-6V6a6 6 0 0 0-6-6Zm-2.07 13.8v.79c0 8.14-6.19 17.51-17.52 17.51A17.37 17.37 0 0 1 5 29.34a11.85 11.85 0 0 0 1.47.08 12.33 12.33 0 0 0 7.64-2.63 6.17 6.17 0 0 1-5.75-4.27 6.34 6.34 0 0 0 1.16.11 6.15 6.15 0 0 0 1.62-.22 6.17 6.17 0 0 1-4.94-6v-.11a6.08 6.08 0 0 0 2.8.77 6.18 6.18 0 0 1-1.9-8.22 17.48 17.48 0 0 0 12.68 6.43 6.46 6.46 0 0 1-.15-1.4 6.15 6.15 0 0 1 10.63-4.21 12.35 12.35 0 0 0 3.91-1.5 6.14 6.14 0 0 1-2.71 3.41 12.29 12.29 0 0 0 3.54-1 12.75 12.75 0 0 1-3.07 3.22Z" style="fill:#00acee" data-name="Layer 1"/></g></svg>